<?xml version="1.0" encoding="UTF-8" standalone="no"?>
<!DOCTYPE svg PUBLIC "-//W3C//DTD SVG 1.1//EN" "http://www.w3.org/Graphics/SVG/1.1/DTD/svg11.dtd">
<!-- Generated by graphviz version 2.40.1 (20161225.0304)
 -->
<!-- Title: %0 Pages: 1 -->
<svg xmlns="http://www.w3.org/2000/svg" xmlns:xlink="http://www.w3.org/1999/xlink" width="2432pt" height="838pt" viewBox="0.00 0.00 2432.00 837.60">
  <g id="graph0" class="graph" transform="scale(1 1) rotate(0) translate(4 833.6)">
    <title>%0</title>
    <g id="clust1" class="cluster">
      <title>cluster_unhcrverse</title>
      <polygon fill="transparent" stroke="transparent" points="8,-8 8,-821.6 2416,-821.6 2416,-8 8,-8"/>
      <text text-anchor="middle" x="1212" y="-776.2" font-family="Lato" font-size="46.00" fill="#faeb00">unhcRverse Stable-enough packages: Categories &amp; Dependencies</text>
    </g>
    <g id="clust2" class="cluster">
      <title>cluster_1</title>
      <polygon fill="transparent" stroke="#ffffff" points="1216,-232 1216,-750.4 2006,-750.4 2006,-232 1216,-232"/>
      <text text-anchor="middle" x="1611" y="-705" font-family="Lato" font-size="46.00" fill="#faeb00"> </text>
    </g>
    <g id="clust3" class="cluster">
      <title>cluster_2</title>
      <polygon fill="transparent" stroke="#ffffff" points="2014,-16 2014,-491.2 2408,-491.2 2408,-16 2014,-16"/>
      <text text-anchor="middle" x="2211" y="-445.8" font-family="Lato" font-size="46.00" fill="#faeb00"> </text>
    </g>
    <g id="clust4" class="cluster">
      <title>cluster_3</title>
      <polygon fill="transparent" stroke="#ffffff" points="418,-16 418,-491.2 1208,-491.2 1208,-16 418,-16"/>
      <text text-anchor="middle" x="813" y="-445.8" font-family="Lato" font-size="46.00" fill="#faeb00"> </text>
    </g>
    <g id="clust5" class="cluster">
      <title>cluster_4</title>
      <polygon fill="transparent" stroke="#ffffff" points="16,-232 16,-750.4 410,-750.4 410,-232 16,-232"/>
      <text text-anchor="middle" x="213" y="-705" font-family="Lato" font-size="46.00" fill="#faeb00"> </text>
    </g>
    <!-- rec1 -->
    <g id="node1" class="node">
      <title>rec1</title>
      <polygon fill="none" stroke="#faeb00" stroke-width="4" points="1701,-589.2 1656,-679.2 1566,-679.2 1521,-589.2 1566,-499.2 1656,-499.2 1701,-589.2"/>
      <text text-anchor="middle" x="1611" y="-604.5" font-family="Lato" font-size="17.00" fill="#ffffff">Data </text>
      <text text-anchor="middle" x="1611" y="-584.1" font-family="Lato" font-size="17.00" fill="#ffffff"> Extraction &amp; </text>
      <text text-anchor="middle" x="1611" y="-563.7" font-family="Lato" font-size="17.00" fill="#ffffff"> Shaping</text>
    </g>
    <!-- rec5 -->
    <g id="node2" class="node">
      <title>rec5</title>
      <polygon fill="none" stroke="#faeb00" stroke-width="4" points="1800,-330 1755,-420 1665,-420 1620,-330 1665,-240 1755,-240 1800,-330"/>
      <text text-anchor="middle" x="1710" y="-345.3" font-family="Lato" font-size="17.00" fill="#ffffff">popdata:</text>
      <text text-anchor="middle" x="1710" y="-324.9" font-family="Lato" font-size="17.00" fill="#ffffff"> pull from </text>
      <text text-anchor="middle" x="1710" y="-304.5" font-family="Lato" font-size="17.00" fill="#ffffff"> popdata.unhcr.org</text>
    </g>
    <!-- rec1&#45;&gt;rec5 -->
    <g id="edge1" class="edge">
      <title>rec1-&gt;rec5</title>
      <path fill="none" stroke="#ffff0f" stroke-width="3" d="M1645.4864,-498.9083C1653.9825,-476.6641 1663.1303,-452.7134 1671.791,-430.038"/>
      <polygon fill="#ffff0f" stroke="#ffff0f" stroke-width="3" points="1675.1711,-430.9974 1675.4696,-420.4068 1668.6319,-428.4998 1675.1711,-430.9974"/>
    </g>
    <!-- rec6 -->
    <g id="node3" class="node">
      <title>rec6</title>
      <polygon fill="none" stroke="#faeb00" stroke-width="4" points="1404,-330 1359,-420 1269,-420 1224,-330 1269,-240 1359,-240 1404,-330"/>
      <text text-anchor="middle" x="1314" y="-345.3" font-family="Lato" font-size="17.00" fill="#ffffff">ridl:</text>
      <text text-anchor="middle" x="1314" y="-324.9" font-family="Lato" font-size="17.00" fill="#ffffff"> pull/push from </text>
      <text text-anchor="middle" x="1314" y="-304.5" font-family="Lato" font-size="17.00" fill="#ffffff"> ridl.unhcr.org</text>
    </g>
    <!-- rec1&#45;&gt;rec6 -->
    <g id="edge2" class="edge">
      <title>rec1-&gt;rec6</title>
      <path fill="none" stroke="#ffff0f" stroke-width="3" d="M1533.9348,-562.8855C1494.5312,-546.676 1447.7026,-522.8752 1413,-491.2 1393.6416,-473.5305 1376.7319,-451.212 1362.6254,-428.8602"/>
      <polygon fill="#ffff0f" stroke="#ffff0f" stroke-width="3" points="1365.5797,-426.9828 1357.3569,-420.3017 1359.6186,-430.6523 1365.5797,-426.9828"/>
    </g>
    <!-- rec7 -->
    <g id="node4" class="node">
      <title>rec7</title>
      <polygon fill="none" stroke="#faeb00" stroke-width="4" points="1602,-330 1557,-420 1467,-420 1422,-330 1467,-240 1557,-240 1602,-330"/>
      <text text-anchor="middle" x="1512" y="-345.3" font-family="Lato" font-size="17.00" fill="#ffffff">robotoolbox:</text>
      <text text-anchor="middle" x="1512" y="-324.9" font-family="Lato" font-size="17.00" fill="#ffffff"> pull from </text>
      <text text-anchor="middle" x="1512" y="-304.5" font-family="Lato" font-size="17.00" fill="#ffffff"> kobo.unhcr.org</text>
    </g>
    <!-- rec1&#45;&gt;rec7 -->
    <g id="edge3" class="edge">
      <title>rec1-&gt;rec7</title>
      <path fill="none" stroke="#ffff0f" stroke-width="3" d="M1576.5136,-498.9083C1568.0175,-476.6641 1558.8697,-452.7134 1550.209,-430.038"/>
      <polygon fill="#ffff0f" stroke="#ffff0f" stroke-width="3" points="1553.3681,-428.4998 1546.5304,-420.4068 1546.8289,-430.9974 1553.3681,-428.4998"/>
    </g>
    <!-- rec8 -->
    <g id="node5" class="node">
      <title>rec8</title>
      <polygon fill="none" stroke="#faeb00" stroke-width="4" points="1998,-330 1953,-420 1863,-420 1818,-330 1863,-240 1953,-240 1998,-330"/>
      <text text-anchor="middle" x="1908" y="-345.3" font-family="Lato" font-size="17.00" fill="#ffffff">rhdx:</text>
      <text text-anchor="middle" x="1908" y="-324.9" font-family="Lato" font-size="17.00" fill="#ffffff"> pull from </text>
      <text text-anchor="middle" x="1908" y="-304.5" font-family="Lato" font-size="17.00" fill="#ffffff"> data.humdata.org</text>
    </g>
    <!-- rec1&#45;&gt;rec8 -->
    <g id="edge4" class="edge">
      <title>rec1-&gt;rec8</title>
      <path fill="none" stroke="#ffff0f" stroke-width="3" d="M1688.0652,-562.8855C1727.4688,-546.676 1774.2974,-522.8752 1809,-491.2 1828.3584,-473.5305 1845.2681,-451.212 1859.3746,-428.8602"/>
      <polygon fill="#ffff0f" stroke="#ffff0f" stroke-width="3" points="1862.3814,-430.6523 1864.6431,-420.3017 1856.4203,-426.9828 1862.3814,-430.6523"/>
    </g>
    <!-- rec99 -->
    <g id="node8" class="node">
      <title>rec99</title>
      <polygon fill="none" stroke="#faeb00" stroke-width="4" points="2400,-114 2355,-204 2265,-204 2220,-114 2265,-24 2355,-24 2400,-114"/>
      <text text-anchor="middle" x="2310" y="-139.5" font-family="Lato" font-size="17.00" fill="#ffffff">Statistical</text>
      <text text-anchor="middle" x="2310" y="-119.1" font-family="Lato" font-size="17.00" fill="#ffffff"> Quality</text>
      <text text-anchor="middle" x="2310" y="-98.7" font-family="Lato" font-size="17.00" fill="#ffffff"> Assurance:</text>
      <text text-anchor="middle" x="2310" y="-78.3" font-family="Lato" font-size="17.00" fill="#ffffff"> SQAF</text>
    </g>
    <!-- rec5&#45;&gt;rec99 -->
    <g id="edge13" class="edge">
      <title>rec5-&gt;rec99</title>
      <path fill="none" stroke="#ffff0f" stroke-width="3" d="M1765.8697,-261.5234C1778.7747,-249.7692 1793.3562,-239.0788 1809,-232 1972.1717,-158.1648 2046.296,-274.3508 2211,-204 2222.5459,-199.0683 2233.6296,-192.2071 2243.9315,-184.451"/>
      <polygon fill="#ffff0f" stroke="#ffff0f" stroke-width="3" points="2246.3443,-187.0052 2252.0197,-178.0587 2242.0039,-181.5133 2246.3443,-187.0052"/>
    </g>
    <!-- rec113 -->
    <g id="node13" class="node">
      <title>rec113</title>
      <polygon fill="none" stroke="#faeb00" stroke-width="4" points="1200,-114 1155,-204 1065,-204 1020,-114 1065,-24 1155,-24 1200,-114"/>
      <text text-anchor="middle" x="1110" y="-119.1" font-family="Lato" font-size="17.00" fill="#ffffff">progresAnalysis:</text>
      <text text-anchor="middle" x="1110" y="-98.7" font-family="Lato" font-size="17.00" fill="#ffffff"> Registration analysis</text>
    </g>
    <!-- rec6&#45;&gt;rec113 -->
    <g id="edge16" class="edge">
      <title>rec6-&gt;rec113</title>
      <path fill="none" stroke="#ffff0f" stroke-width="3" d="M1254.9947,-267.5239C1230.2557,-241.3295 1201.3864,-210.762 1175.9498,-183.8292"/>
      <polygon fill="#ffff0f" stroke="#ffff0f" stroke-width="3" points="1178.2835,-181.2027 1168.8726,-176.3357 1173.1944,-186.0091 1178.2835,-181.2027"/>
    </g>
    <!-- rec9 -->
    <g id="node7" class="node">
      <title>rec9</title>
      <polygon fill="none" stroke="#faeb00" stroke-width="4" points="2202,-114 2157,-204 2067,-204 2022,-114 2067,-24 2157,-24 2202,-114"/>
      <text text-anchor="middle" x="2112" y="-129.3" font-family="Lato" font-size="17.00" fill="#ffffff">High</text>
      <text text-anchor="middle" x="2112" y="-108.9" font-family="Lato" font-size="17.00" fill="#ffffff"> FrequencyChecks:</text>
      <text text-anchor="middle" x="2112" y="-88.5" font-family="Lato" font-size="17.00" fill="#ffffff"> Data collection quality</text>
    </g>
    <!-- rec7&#45;&gt;rec9 -->
    <g id="edge14" class="edge">
      <title>rec7-&gt;rec9</title>
      <path fill="none" stroke="#ffff0f" stroke-width="3" d="M1568.8459,-263.4675C1581.6753,-251.5627 1595.9793,-240.3197 1611,-232 1739.546,-160.8009 1909.674,-132.3827 2014.9201,-121.1627"/>
      <polygon fill="#ffff0f" stroke="#ffff0f" stroke-width="3" points="2015.3126,-124.6408 2024.8991,-120.1297 2014.5918,-117.678 2015.3126,-124.6408"/>
    </g>
    <!-- rec2 -->
    <g id="node6" class="node">
      <title>rec2</title>
      <polygon fill="none" stroke="#faeb00" stroke-width="4" points="2301,-330 2256,-420 2166,-420 2121,-330 2166,-240 2256,-240 2301,-330"/>
      <text text-anchor="middle" x="2211" y="-345.3" font-family="Lato" font-size="17.00" fill="#ffffff">Data </text>
      <text text-anchor="middle" x="2211" y="-324.9" font-family="Lato" font-size="17.00" fill="#ffffff"> Quality </text>
      <text text-anchor="middle" x="2211" y="-304.5" font-family="Lato" font-size="17.00" fill="#ffffff"> Check</text>
    </g>
    <!-- rec2&#45;&gt;rec9 -->
    <g id="edge5" class="edge">
      <title>rec2-&gt;rec9</title>
      <path fill="none" stroke="#ffff0f" stroke-width="3" d="M2169.732,-239.9606C2165.7155,-231.1974 2161.6246,-222.2719 2157.5692,-213.4236"/>
      <polygon fill="#ffff0f" stroke="#ffff0f" stroke-width="3" points="2160.7087,-211.8731 2153.3604,-204.2408 2154.3452,-214.7898 2160.7087,-211.8731"/>
    </g>
    <!-- rec2&#45;&gt;rec99 -->
    <g id="edge6" class="edge">
      <title>rec2-&gt;rec99</title>
      <path fill="none" stroke="#ffff0f" stroke-width="3" d="M2252.268,-239.9606C2256.2845,-231.1974 2260.3754,-222.2719 2264.4308,-213.4236"/>
      <polygon fill="#ffff0f" stroke="#ffff0f" stroke-width="3" points="2267.6548,-214.7898 2268.6396,-204.2408 2261.2913,-211.8731 2267.6548,-214.7898"/>
    </g>
    <!-- rec9&#45;&gt;rec6 -->
    <g id="edge15" class="edge">
      <title>rec9-&gt;rec6</title>
      <path fill="none" stroke="#ffff0f" stroke-width="3" d="M2025.9844,-121.9827C1863.6454,-138.1084 1518.8873,-177.7085 1413,-232 1400.7048,-238.3041 1388.9666,-246.6755 1378.1493,-255.8774"/>
      <polygon fill="#ffff0f" stroke="#ffff0f" stroke-width="3" points="1375.6046,-253.4558 1370.4405,-262.7069 1380.2465,-258.6954 1375.6046,-253.4558"/>
    </g>
    <!-- rec3 -->
    <g id="node9" class="node">
      <title>rec3</title>
      <polygon fill="none" stroke="#faeb00" stroke-width="4" points="903,-330 858,-420 768,-420 723,-330 768,-240 858,-240 903,-330"/>
      <text text-anchor="middle" x="813" y="-335.1" font-family="Lato" font-size="17.00" fill="#ffffff">Data Exploration /</text>
      <text text-anchor="middle" x="813" y="-314.7" font-family="Lato" font-size="17.00" fill="#ffffff">  Chart Library</text>
    </g>
    <!-- rec10 -->
    <g id="node10" class="node">
      <title>rec10</title>
      <polygon fill="none" stroke="#faeb00" stroke-width="4" points="1002,-114 957,-204 867,-204 822,-114 867,-24 957,-24 1002,-114"/>
      <text text-anchor="middle" x="912" y="-119.1" font-family="Lato" font-size="17.00" fill="#ffffff">unhcrdatapackage:</text>
      <text text-anchor="middle" x="912" y="-98.7" font-family="Lato" font-size="17.00" fill="#ffffff"> Population Statistics</text>
    </g>
    <!-- rec3&#45;&gt;rec10 -->
    <g id="edge7" class="edge">
      <title>rec3-&gt;rec10</title>
      <path fill="none" stroke="#ffff0f" stroke-width="3" d="M854.268,-239.9606C858.2845,-231.1974 862.3754,-222.2719 866.4308,-213.4236"/>
      <polygon fill="#ffff0f" stroke="#ffff0f" stroke-width="3" points="869.6548,-214.7898 870.6396,-204.2408 863.2913,-211.8731 869.6548,-214.7898"/>
    </g>
    <!-- rec11 -->
    <g id="node11" class="node">
      <title>rec11</title>
      <polygon fill="none" stroke="#faeb00" stroke-width="4" points="606,-114 561,-204 471,-204 426,-114 471,-24 561,-24 606,-114"/>
      <text text-anchor="middle" x="516" y="-129.3" font-family="Lato" font-size="17.00" fill="#ffffff">iati:</text>
      <text text-anchor="middle" x="516" y="-108.9" font-family="Lato" font-size="17.00" fill="#ffffff"> UNHCR activities &amp;</text>
      <text text-anchor="middle" x="516" y="-88.5" font-family="Lato" font-size="17.00" fill="#ffffff"> Budget</text>
    </g>
    <!-- rec3&#45;&gt;rec11 -->
    <g id="edge8" class="edge">
      <title>rec3-&gt;rec11</title>
      <path fill="none" stroke="#ffff0f" stroke-width="3" d="M742.7801,-289.3517C704.0163,-265.9264 655.6373,-235.0386 615,-204 604.8501,-196.2475 594.4932,-187.6734 584.4865,-178.9882"/>
      <polygon fill="#ffff0f" stroke="#ffff0f" stroke-width="3" points="586.7353,-176.3051 576.9117,-172.3367 582.1165,-181.565 586.7353,-176.3051"/>
    </g>
    <!-- rec112 -->
    <g id="node12" class="node">
      <title>rec112</title>
      <polygon fill="none" stroke="#faeb00" stroke-width="4" points="804,-114 759,-204 669,-204 624,-114 669,-24 759,-24 804,-114"/>
      <text text-anchor="middle" x="714" y="-139.5" font-family="Lato" font-size="17.00" fill="#ffffff">kobocruncher:</text>
      <text text-anchor="middle" x="714" y="-119.1" font-family="Lato" font-size="17.00" fill="#ffffff"> Automatic </text>
      <text text-anchor="middle" x="714" y="-98.7" font-family="Lato" font-size="17.00" fill="#ffffff"> data exploration </text>
      <text text-anchor="middle" x="714" y="-78.3" font-family="Lato" font-size="17.00" fill="#ffffff"> for surveys</text>
    </g>
    <!-- rec3&#45;&gt;rec112 -->
    <g id="edge9" class="edge">
      <title>rec3-&gt;rec112</title>
      <path fill="none" stroke="#ffff0f" stroke-width="3" d="M771.732,-239.9606C767.7155,-231.1974 763.6246,-222.2719 759.5692,-213.4236"/>
      <polygon fill="#ffff0f" stroke="#ffff0f" stroke-width="3" points="762.7087,-211.8731 755.3604,-204.2408 756.3452,-214.7898 762.7087,-211.8731"/>
    </g>
    <!-- rec3&#45;&gt;rec113 -->
    <g id="edge10" class="edge">
      <title>rec3-&gt;rec113</title>
      <path fill="none" stroke="#ffff0f" stroke-width="3" d="M883.2199,-289.3517C921.9837,-265.9264 970.3627,-235.0386 1011,-204 1021.1499,-196.2475 1031.5068,-187.6734 1041.5135,-178.9882"/>
      <polygon fill="#ffff0f" stroke="#ffff0f" stroke-width="3" points="1043.8835,-181.565 1049.0883,-172.3367 1039.2647,-176.3051 1043.8835,-181.565"/>
    </g>
    <!-- rec4 -->
    <g id="node14" class="node">
      <title>rec4</title>
      <polygon fill="none" stroke="#faeb00" stroke-width="4" points="303,-589.2 258,-679.2 168,-679.2 123,-589.2 168,-499.2 258,-499.2 303,-589.2"/>
      <text text-anchor="middle" x="213" y="-604.5" font-family="Lato" font-size="17.00" fill="#ffffff">Branding: </text>
      <text text-anchor="middle" x="213" y="-584.1" font-family="Lato" font-size="17.00" fill="#ffffff"> Report Template &amp;</text>
      <text text-anchor="middle" x="213" y="-563.7" font-family="Lato" font-size="17.00" fill="#ffffff">  Chart Style</text>
    </g>
    <!-- rec12 -->
    <g id="node15" class="node">
      <title>rec12</title>
      <polygon fill="none" stroke="#faeb00" stroke-width="4" points="204,-330 159,-420 69,-420 24,-330 69,-240 159,-240 204,-330"/>
      <text text-anchor="middle" x="114" y="-335.1" font-family="Lato" font-size="17.00" fill="#ffffff">unhcrdown:</text>
      <text text-anchor="middle" x="114" y="-314.7" font-family="Lato" font-size="17.00" fill="#ffffff"> Report template</text>
    </g>
    <!-- rec4&#45;&gt;rec12 -->
    <g id="edge11" class="edge">
      <title>rec4-&gt;rec12</title>
      <path fill="none" stroke="#ffff0f" stroke-width="3" d="M178.5136,-498.9083C170.0175,-476.6641 160.8697,-452.7134 152.209,-430.038"/>
      <polygon fill="#ffff0f" stroke="#ffff0f" stroke-width="3" points="155.3681,-428.4998 148.5304,-420.4068 148.8289,-430.9974 155.3681,-428.4998"/>
    </g>
    <!-- rec13 -->
    <g id="node16" class="node">
      <title>rec13</title>
      <polygon fill="none" stroke="#faeb00" stroke-width="4" points="402,-330 357,-420 267,-420 222,-330 267,-240 357,-240 402,-330"/>
      <text text-anchor="middle" x="312" y="-335.1" font-family="Lato" font-size="17.00" fill="#ffffff">unhcrthemes:</text>
      <text text-anchor="middle" x="312" y="-314.7" font-family="Lato" font-size="17.00" fill="#ffffff"> Ggplot theme</text>
    </g>
    <!-- rec4&#45;&gt;rec13 -->
    <g id="edge12" class="edge">
      <title>rec4-&gt;rec13</title>
      <path fill="none" stroke="#ffff0f" stroke-width="3" d="M247.4864,-498.9083C255.9825,-476.6641 265.1303,-452.7134 273.791,-430.038"/>
      <polygon fill="#ffff0f" stroke="#ffff0f" stroke-width="3" points="277.1711,-430.9974 277.4696,-420.4068 270.6319,-428.4998 277.1711,-430.9974"/>
    </g>
    <!-- rec12&#45;&gt;rec10 -->
    <g id="edge23" class="edge">
      <title>rec12-&gt;rec10</title>
      <path fill="none" stroke="#ffff0f" stroke-width="3" d="M169.7443,-261.242C182.659,-249.5096 197.2761,-238.8992 213,-232 335.2301,-178.3689 689.6577,-255.0214 813,-204 824.6016,-199.2009 835.7175,-192.4163 846.0355,-184.6985"/>
      <polygon fill="#ffff0f" stroke="#ffff0f" stroke-width="3" points="848.4372,-187.2624 854.1333,-178.329 844.1095,-181.7604 848.4372,-187.2624"/>
    </g>
    <!-- rec12&#45;&gt;rec11 -->
    <g id="edge21" class="edge">
      <title>rec12-&gt;rec11</title>
      <path fill="none" stroke="#ffff0f" stroke-width="3" d="M171.8157,-265.0821C184.5699,-253.0522 198.5982,-241.3503 213,-232 279.2925,-188.9598 363.7041,-157.7027 426.5866,-138.2139"/>
      <polygon fill="#ffff0f" stroke="#ffff0f" stroke-width="3" points="427.948,-141.4577 436.4879,-135.1871 425.9015,-134.7635 427.948,-141.4577"/>
    </g>
    <!-- rec12&#45;&gt;rec112 -->
    <g id="edge17" class="edge">
      <title>rec12-&gt;rec112</title>
      <path fill="none" stroke="#ffff0f" stroke-width="3" d="M169.8697,-261.5234C182.7747,-249.7692 197.3562,-239.0788 213,-232 376.1717,-158.1648 450.296,-274.3508 615,-204 626.5459,-199.0683 637.6296,-192.2071 647.9315,-184.451"/>
      <polygon fill="#ffff0f" stroke="#ffff0f" stroke-width="3" points="650.3443,-187.0052 656.0197,-178.0587 646.0039,-181.5133 650.3443,-187.0052"/>
    </g>
    <!-- rec12&#45;&gt;rec113 -->
    <g id="edge19" class="edge">
      <title>rec12-&gt;rec113</title>
      <path fill="none" stroke="#ffff0f" stroke-width="3" d="M169.6823,-261.0994C182.6018,-249.3781 197.2365,-238.8082 213,-232 375.8986,-161.6446 846.643,-270.8776 1011,-204 1022.6292,-199.268 1033.7609,-192.5222 1044.0869,-184.8238"/>
      <polygon fill="#ffff0f" stroke="#ffff0f" stroke-width="3" points="1046.4829,-187.3927 1052.1895,-178.466 1042.1617,-181.8856 1046.4829,-187.3927"/>
    </g>
    <!-- rec13&#45;&gt;rec10 -->
    <g id="edge24" class="edge">
      <title>rec13-&gt;rec10</title>
      <path fill="none" stroke="#ffff0f" stroke-width="3" d="M368.4512,-262.7604C382.0701,-250.5186 397.5025,-239.3225 414,-232 576.4834,-159.8812 649.5374,-273.8709 813,-204 824.5446,-199.0653 835.6275,-192.2024 845.9291,-184.4454"/>
      <polygon fill="#ffff0f" stroke="#ffff0f" stroke-width="3" points="848.3421,-186.9994 854.017,-178.0525 844.0014,-181.5077 848.3421,-186.9994"/>
    </g>
    <!-- rec13&#45;&gt;rec11 -->
    <g id="edge22" class="edge">
      <title>rec13-&gt;rec11</title>
      <path fill="none" stroke="#ffff0f" stroke-width="3" d="M371.0053,-267.5239C395.7443,-241.3295 424.6136,-210.762 450.0502,-183.8292"/>
      <polygon fill="#ffff0f" stroke="#ffff0f" stroke-width="3" points="452.8056,-186.0091 457.1274,-176.3357 447.7165,-181.2027 452.8056,-186.0091"/>
    </g>
    <!-- rec13&#45;&gt;rec112 -->
    <g id="edge18" class="edge">
      <title>rec13-&gt;rec112</title>
      <path fill="none" stroke="#ffff0f" stroke-width="3" d="M368.8473,-263.6133C382.4406,-251.3162 397.7623,-239.8819 414,-232 495.1417,-192.6131 533.3228,-242.264 615,-204 626.2863,-198.7126 637.1905,-191.688 647.3771,-183.8865"/>
      <polygon fill="#ffff0f" stroke="#ffff0f" stroke-width="3" points="649.7622,-186.4607 655.3862,-177.4818 645.3904,-180.9938 649.7622,-186.4607"/>
    </g>
    <!-- rec13&#45;&gt;rec113 -->
    <g id="edge20" class="edge">
      <title>rec13-&gt;rec113</title>
      <path fill="none" stroke="#ffff0f" stroke-width="3" d="M368.3234,-262.4679C381.9506,-250.2451 397.4187,-239.1307 414,-232 536.0089,-179.531 888.2791,-254.7812 1011,-204 1022.6011,-199.1995 1033.7166,-192.4141 1044.0344,-184.696"/>
      <polygon fill="#ffff0f" stroke="#ffff0f" stroke-width="3" points="1046.4363,-187.2598 1052.1322,-178.3263 1042.1085,-181.7579 1046.4363,-187.2598"/>
    </g>
  </g>
</svg>
